<svg viewBox="0 0 496 496" xmlns="http://www.w3.org/2000/svg"><path d="M153.785 185.785C137.16 202.415 128 224.504 128 248s9.16 45.586 25.785 62.215C170.415 326.84 192.504 336 216 336s45.586-9.16 62.215-25.785C294.84 293.585 304 271.496 304 248s-9.16-45.586-25.785-62.215C261.585 169.16 239.496 160 216 160s-45.586 9.16-62.215 25.785zM287.527 256c-1.496 13.55-6.757 26.266-15.297 36.91l-34.628-34.62c.359-.747.664-1.505.941-2.29zm-143.054-16c1.496-13.55 6.757-26.266 15.297-36.91l34.62 34.62a22.64 22.64 0 00-.94 2.29zm65.824 13.55c-1.473-1.445-2.297-3.413-2.297-5.55s.824-4.105 2.45-5.695c1.445-1.489 3.413-2.305 5.55-2.305s4.105.816 5.703 2.45c1.473 1.445 2.297 3.413 2.297 5.55s-.824 4.105-2.457 5.695c-2.871 2.977-8.055 3.121-11.246-.144zM208 225.634a22.86 22.86 0 00-2.2.855l-34.71-34.71c10.644-8.548 23.36-13.81 36.91-15.305zm-2.29 43.969c.747.359 1.505.664 2.29.941v48.984c-13.55-1.496-26.266-6.757-36.91-15.297zm18.29.949c.785-.278 1.55-.582 2.297-.942l34.613 34.614A71.211 71.211 0 01224 319.521zm2.184-44.047c-.72-.32-1.442-.61-2.184-.856v-49.175c13.55 1.496 26.266 6.757 36.91 15.304zM144.473 256h48.968c.278.785.582 1.55.942 2.297L159.77 292.91c-8.54-10.644-13.801-23.36-15.297-36.91zm143.054-16h-48.976a23.422 23.422 0 00-.942-2.297l34.614-34.613c8.547 10.644 13.808 23.36 15.304 36.91zm0 0"/><path d="M480 0h-16c-8.824 0-16 7.176-16 16v.785l-65.176 6.688C374.504 24.105 368 31.129 368 39.44V40H214.719c-35.656 0-70.903 8.871-102.489 25.527L89.937 50.61c-9.593-6.351-22.042-5.136-30.312 3.016l-38.04 38.04c-7.983 8.105-9.233 20.831-2.952 30.304l12.48 18.648c-14.41 22.918-24.008 48.055-28.449 74.895C.894 226.382 0 237.32 0 248c0 38.656 10.367 76.305 29.816 109.32L18.61 374.063c-6.351 9.593-5.136 22.05 3.016 30.312l38.04 38.04c4.702 4.64 10.792 7.026 16.937 7.026 4.597 0 9.238-1.336 13.359-4.066l16.781-11.191c17.266 10.183 35.684 17.8 54.883 22.703l3.977 19.816C167.855 487.88 177.754 496 189.122 496h53.765c11.37 0 21.258-8.121 23.52-19.305l3.976-19.832c19.176-5 37.504-12.68 54.633-22.879l17.046 11.414c4.106 2.715 8.723 4.051 13.313 4.051 6.16 0 12.266-2.402 17-7.066l38.04-38.04c8.112-8.222 9.327-20.679 2.96-30.304l-11.406-17.031c18.55-31.328 28.953-66.711 29.953-102.762.832-28.36-3.8-55.933-13.692-82.062l29.77 3.039V176c0 8.824 7.176 16 16 16h16c8.824 0 16-7.176 16-16V16c0-8.824-7.176-16-16-16zM32.937 102.938l37.958-37.961c2.785-2.747 6.976-3.168 10.175-1.047l15.707 10.51c-21.73 13.91-40.8 31.59-55.968 51.91l-8.864-13.253a8.059 8.059 0 01.993-10.16zm48.176 329.109a8.067 8.067 0 01-10.168-.985l-37.96-37.957c-2.747-2.785-3.169-6.976-1.04-10.183l7.23-10.852c14.352 20.45 32.313 38.403 52.747 52.754zM242.88 480h-53.76c-3.785 0-7.082-2.719-7.832-6.465l-2.57-12.793a215.278 215.278 0 0037.41 3.258c4.488 0 8.976-.145 13.48-.414 7.895-.48 15.817-1.602 23.711-3l-2.593 12.941c-.766 3.754-4.063 6.473-7.848 6.473zm156.184-86.938l-37.958 37.961c-2.785 2.747-6.984 3.168-10.168 1.047l-11.175-7.468c20.398-14.403 38.375-32.403 52.812-52.883l7.473 11.176c2.137 3.234 1.723 7.425-.985 10.168zm16.859-139.285c-.961 34.95-11.387 69.27-30.152 99.27-16.305 26.144-38.657 48.52-64.68 64.746-18.418 11.598-38.402 19.977-59.418 24.902-10.938 2.594-22.055 4.25-33.047 4.922-19.746 1.215-39.395-.449-58.367-4.937-21.043-4.825-41.106-13.13-59.656-24.688-26.122-16.152-48.457-38.496-64.618-64.617C26.375 321.84 16 285.406 16 248c0-9.824.832-19.887 2.457-29.895 4.36-26.351 14.063-50.976 28.863-73.218 16.742-25.375 39.864-46.934 66.864-62.328C144.832 65.184 179.594 56 214.719 56H336v32h16V56h16v80h-16v-32h-16v32h-77.145c-13.55-5.266-27.953-8-42.855-8-66.168 0-120 53.832-120 120s53.832 120 120 120 120-53.832 120-120c0-38.656-18.191-73.77-48.023-96H368v.559c0 8.32 6.504 15.336 14.61 15.96l17.59 1.801c11.25 26.473 16.577 54.512 15.722 83.457zM320 248c0 57.344-46.656 104-104 104s-104-46.656-104-104 46.656-104 104-104c13.45 0 26.398 2.496 38.559 7.434C294.313 167.274 320 205.176 320 248zm64-95.441V48l.246-8.602L448 32.863v126.282zM480 176h-16V16h16zm0 0"/><path d="M352 248c0 13.23 10.77 24 24 24s24-10.77 24-24-10.77-24-24-24-24 10.77-24 24zm32 0c0 4.406-3.586 8-8 8s-8-3.594-8-8 3.586-8 8-8 8 3.594 8 8zM75.137 156.441l-13.313-8.875c-3.031 4.547-6 9.579-8.832 14.961l14.168 7.442c2.567-4.899 5.246-9.45 7.977-13.528zM48 248c0-22.754 4.473-44.816 13.29-65.594l-14.74-6.246C36.896 198.922 32 223.09 32 248c0 101.465 82.535 184 184 184v-16c-92.633 0-168-75.367-168-168zm0 0"/></svg>