<svg xmlns="http://www.w3.org/2000/svg" viewBox="0 0 511.999 511.999"><path d="M293.6 37.6H91.789c-9.161 0-16.588 7.427-16.588 16.588s7.427 16.588 16.588 16.588h86.226a220.022 220.022 0 00-48.68 41.46H16.588C7.427 112.237 0 119.665 0 128.826s7.427 16.588 16.588 16.588h88.75C86.2 177.87 75.2 215.672 75.2 255.999c0 46.924 14.879 90.438 40.161 126.077H68.295c-9.161 0-16.588 7.427-16.588 16.588 0 9.161 7.427 16.588 16.588 16.588h76.019a219.779 219.779 0 0033.701 25.969H18.299c-9.161 0-16.588 7.427-16.588 16.588 0 9.161 7.427 16.588 16.588 16.588H293.6c120.427 0 218.399-97.974 218.399-218.399S414.026 37.6 293.6 37.6zm0 403.623c-102.132 0-185.222-83.09-185.222-185.223S191.468 70.777 293.6 70.777s185.222 83.09 185.222 185.222S395.733 441.223 293.6 441.223z"/><path d="M293.6 120.507c-74.711 0-135.493 60.782-135.493 135.493 0 44.553 21.619 84.15 54.915 108.86.305.258.608.518.937.755.37.269.749.52 1.132.754 22.164 15.811 49.269 25.123 78.509 25.123s56.344-9.312 78.509-25.123c.384-.234.762-.485 1.132-.754.328-.239.632-.499.937-.755 33.295-24.71 54.915-64.306 54.915-108.86 0-74.71-60.782-135.493-135.493-135.493zm16.588 34.529c32.372 5.301 59.681 25.841 74.29 53.994l-42.956 13.958c-7.461-10.799-18.472-18.958-31.333-22.789v-45.163zm8.457 100.963c0 13.81-11.235 25.045-25.045 25.045s-25.045-11.234-25.045-25.045c0-13.81 11.235-25.045 25.045-25.045s25.045 11.235 25.045 25.045zm-41.634-100.963v45.163c-12.863 3.831-23.872 11.99-31.334 22.789l-42.955-13.958c14.61-28.153 41.919-48.694 74.289-53.994zm-56.144 172.85c-18.278-18.492-29.583-43.893-29.583-71.887 0-5.242.398-10.393 1.162-15.425l42.969 13.962c-.012.488-.038.972-.038 1.463 0 13.296 4.49 25.558 12.02 35.371l-26.53 36.516zm72.733 30.429c-16.501 0-32.099-3.93-45.915-10.899l26.536-36.522c6.066 2.148 12.586 3.329 19.379 3.329s13.313-1.181 19.379-3.329l26.536 36.522c-13.816 6.967-29.414 10.899-45.915 10.899zm72.732-30.429l-26.53-36.515c7.53-9.813 12.02-22.075 12.02-35.371 0-.491-.024-.975-.038-1.463l42.969-13.962A102.71 102.71 0 01395.915 256c.001 27.993-11.303 53.393-29.583 71.886z"/></svg>